<svg height="2430" width="720" xmlns="http://www.w3.org/2000/svg">
<rect height="2430" fill="#555" width="720"></rect>
<text fill="#7f7" font-family="Courier New" font-size="12" xml:space="preserve">
<tspan x="10" y="26">17 megabytes installed</tspan>
<tspan x="10" y="42"></tspan>
<tspan x="10" y="58">node_modules</tspan>
<tspan x="10" y="74">└─┬ meetup-api@1.4.12 </tspan>
<tspan x="10" y="90">  ├─┬ event-stream@3.3.4 </tspan>
<tspan x="10" y="106">  │ ├── duplexer@0.1.1 </tspan>
<tspan x="10" y="122">  │ ├── from@0.1.7 </tspan>
<tspan x="10" y="138">  │ ├── map-stream@0.1.0 </tspan>
<tspan x="10" y="154">  │ ├── pause-stream@0.0.11 </tspan>
<tspan x="10" y="170">  │ ├── split@0.3.3 </tspan>
<tspan x="10" y="186">  │ └── stream-combiner@0.0.4 </tspan>
<tspan x="10" y="202">  ├─┬ JSONStream@1.3.1 </tspan>
<tspan x="10" y="218">  │ ├── jsonparse@1.3.0 </tspan>
<tspan x="10" y="234">  │ └── through@2.3.8 </tspan>
<tspan x="10" y="250">  ├── oauth@0.9.15 </tspan>
<tspan x="10" y="266">  ├─┬ proxy-agent@2.0.0 </tspan>
<tspan x="10" y="282">  │ ├─┬ agent-base@2.0.1 </tspan>
<tspan x="10" y="298">  │ │ └── semver@5.0.3 </tspan>
<tspan x="10" y="314">  │ ├─┬ debug@2.6.3 </tspan>
<tspan x="10" y="330">  │ │ └── ms@0.7.2 </tspan>
<tspan x="10" y="346">  │ ├── extend@3.0.0 </tspan>
<tspan x="10" y="362">  │ ├── http-proxy-agent@1.0.0 </tspan>
<tspan x="10" y="378">  │ ├── https-proxy-agent@1.0.0 </tspan>
<tspan x="10" y="394">  │ ├── lru-cache@2.6.5 </tspan>
<tspan x="10" y="410">  │ ├─┬ pac-proxy-agent@1.0.0 </tspan>
<tspan x="10" y="426">  │ │ ├─┬ get-uri@1.1.0 </tspan>
<tspan x="10" y="442">  │ │ │ ├── data-uri-to-buffer@0.0.4 </tspan>
<tspan x="10" y="458">  │ │ │ ├── file-uri-to-path@0.0.2 </tspan>
<tspan x="10" y="474">  │ │ │ └─┬ ftp@0.3.10 </tspan>
<tspan x="10" y="490">  │ │ │   ├─┬ readable-stream@1.1.14 </tspan>
<tspan x="10" y="506">  │ │ │   │ ├── isarray@0.0.1 </tspan>
<tspan x="10" y="522">  │ │ │   │ └── string_decoder@0.10.31 </tspan>
<tspan x="10" y="538">  │ │ │   └── xregexp@2.0.0 </tspan>
<tspan x="10" y="554">  │ │ ├─┬ pac-resolver@1.2.6 </tspan>
<tspan x="10" y="570">  │ │ │ ├── co@3.0.6 </tspan>
<tspan x="10" y="586">  │ │ │ ├─┬ degenerator@1.0.4 </tspan>
<tspan x="10" y="602">  │ │ │ │ ├── ast-types@0.9.11 </tspan>
<tspan x="10" y="618">  │ │ │ │ ├─┬ escodegen@1.8.1 </tspan>
<tspan x="10" y="634">  │ │ │ │ │ ├── esprima@2.7.3 </tspan>
<tspan x="10" y="650">  │ │ │ │ │ ├── estraverse@1.9.3 </tspan>
<tspan x="10" y="666">  │ │ │ │ │ ├── esutils@2.0.2 </tspan>
<tspan x="10" y="682">  │ │ │ │ │ ├─┬ optionator@0.8.2 </tspan>
<tspan x="10" y="698">  │ │ │ │ │ │ ├── deep-is@0.1.3 </tspan>
<tspan x="10" y="714">  │ │ │ │ │ │ ├── fast-levenshtein@2.0.6 </tspan>
<tspan x="10" y="730">  │ │ │ │ │ │ ├── levn@0.3.0 </tspan>
<tspan x="10" y="746">  │ │ │ │ │ │ ├── prelude-ls@1.1.2 </tspan>
<tspan x="10" y="762">  │ │ │ │ │ │ ├── type-check@0.3.2 </tspan>
<tspan x="10" y="778">  │ │ │ │ │ │ └── wordwrap@1.0.0 </tspan>
<tspan x="10" y="794">  │ │ │ │ │ └─┬ source-map@0.2.0 </tspan>
<tspan x="10" y="810">  │ │ │ │ │   └── amdefine@1.0.1 </tspan>
<tspan x="10" y="826">  │ │ │ │ └── esprima@3.1.3 </tspan>
<tspan x="10" y="842">  │ │ │ ├── netmask@1.0.6 </tspan>
<tspan x="10" y="858">  │ │ │ ├─┬ regenerator@0.8.46 </tspan>
<tspan x="10" y="874">  │ │ │ │ ├─┬ commoner@0.10.8 </tspan>
<tspan x="10" y="890">  │ │ │ │ │ ├─┬ commander@2.9.0 </tspan>
<tspan x="10" y="906">  │ │ │ │ │ │ └── graceful-readlink@1.0.1 </tspan>
<tspan x="10" y="922">  │ │ │ │ │ ├─┬ detective@4.5.0 </tspan>
<tspan x="10" y="938">  │ │ │ │ │ │ ├── acorn@4.0.11 </tspan>
<tspan x="10" y="954">  │ │ │ │ │ │ └── defined@1.0.0 </tspan>
<tspan x="10" y="970">  │ │ │ │ │ ├─┬ glob@5.0.15 </tspan>
<tspan x="10" y="986">  │ │ │ │ │ │ ├── inflight@1.0.6 </tspan>
<tspan x="10" y="1002">  │ │ │ │ │ │ ├─┬ minimatch@3.0.3 </tspan>
<tspan x="10" y="1018">  │ │ │ │ │ │ │ └─┬ brace-expansion@1.1.7 </tspan>
<tspan x="10" y="1034">  │ │ │ │ │ │ │   ├── balanced-match@0.4.2 </tspan>
<tspan x="10" y="1050">  │ │ │ │ │ │ │   └── concat-map@0.0.1 </tspan>
<tspan x="10" y="1066">  │ │ │ │ │ │ ├── once@1.4.0 </tspan>
<tspan x="10" y="1082">  │ │ │ │ │ │ └── path-is-absolute@1.0.1 </tspan>
<tspan x="10" y="1098">  │ │ │ │ │ ├── graceful-fs@4.1.11 </tspan>
<tspan x="10" y="1114">  │ │ │ │ │ ├── iconv-lite@0.4.15 </tspan>
<tspan x="10" y="1130">  │ │ │ │ │ ├─┬ mkdirp@0.5.1 </tspan>
<tspan x="10" y="1146">  │ │ │ │ │ │ └── minimist@0.0.8 </tspan>
<tspan x="10" y="1162">  │ │ │ │ │ ├── q@1.5.0 </tspan>
<tspan x="10" y="1178">  │ │ │ │ │ └─┬ recast@0.11.23 </tspan>
<tspan x="10" y="1194">  │ │ │ │ │   ├── ast-types@0.9.6 </tspan>
<tspan x="10" y="1210">  │ │ │ │ │   └── source-map@0.5.6 </tspan>
<tspan x="10" y="1226">  │ │ │ │ ├─┬ defs@1.1.1 </tspan>
<tspan x="10" y="1242">  │ │ │ │ │ ├─┬ alter@0.2.0 </tspan>
<tspan x="10" y="1258">  │ │ │ │ │ │ └── stable@0.1.6 </tspan>
<tspan x="10" y="1274">  │ │ │ │ │ ├── ast-traverse@0.1.1 </tspan>
<tspan x="10" y="1290">  │ │ │ │ │ ├── breakable@1.0.0 </tspan>
<tspan x="10" y="1306">  │ │ │ │ │ ├── esprima-fb@15001.1001.0-dev-harmony-fb </tspan>
<tspan x="10" y="1322">  │ │ │ │ │ ├── simple-fmt@0.1.0 </tspan>
<tspan x="10" y="1338">  │ │ │ │ │ ├── simple-is@0.2.0 </tspan>
<tspan x="10" y="1354">  │ │ │ │ │ ├── stringmap@0.2.2 </tspan>
<tspan x="10" y="1370">  │ │ │ │ │ ├── stringset@0.2.1 </tspan>
<tspan x="10" y="1386">  │ │ │ │ │ ├── tryor@0.1.2 </tspan>
<tspan x="10" y="1402">  │ │ │ │ │ └─┬ yargs@3.27.0 </tspan>
<tspan x="10" y="1418">  │ │ │ │ │   ├── camelcase@1.2.1 </tspan>
<tspan x="10" y="1434">  │ │ │ │ │   ├─┬ cliui@2.1.0 </tspan>
<tspan x="10" y="1450">  │ │ │ │ │   │ ├─┬ center-align@0.1.3 </tspan>
<tspan x="10" y="1466">  │ │ │ │ │   │ │ ├─┬ align-text@0.1.4 </tspan>
<tspan x="10" y="1482">  │ │ │ │ │   │ │ │ ├─┬ kind-of@3.1.0 </tspan>
<tspan x="10" y="1498">  │ │ │ │ │   │ │ │ │ └── is-buffer@1.1.5 </tspan>
<tspan x="10" y="1514">  │ │ │ │ │   │ │ │ ├── longest@1.0.1 </tspan>
<tspan x="10" y="1530">  │ │ │ │ │   │ │ │ └── repeat-string@1.6.1 </tspan>
<tspan x="10" y="1546">  │ │ │ │ │   │ │ └── lazy-cache@1.0.4 </tspan>
<tspan x="10" y="1562">  │ │ │ │ │   │ ├── right-align@0.1.3 </tspan>
<tspan x="10" y="1578">  │ │ │ │ │   │ └── wordwrap@0.0.2 </tspan>
<tspan x="10" y="1594">  │ │ │ │ │   ├── decamelize@1.2.0 </tspan>
<tspan x="10" y="1610">  │ │ │ │ │   ├─┬ os-locale@1.4.0 </tspan>
<tspan x="10" y="1626">  │ │ │ │ │   │ └─┬ lcid@1.0.0 </tspan>
<tspan x="10" y="1642">  │ │ │ │ │   │   └── invert-kv@1.0.0 </tspan>
<tspan x="10" y="1658">  │ │ │ │ │   ├── window-size@0.1.4 </tspan>
<tspan x="10" y="1674">  │ │ │ │ │   └── y18n@3.2.1 </tspan>
<tspan x="10" y="1690">  │ │ │ │ ├── esprima-fb@15001.1001.0-dev-harmony-fb </tspan>
<tspan x="10" y="1706">  │ │ │ │ ├── private@0.1.7 </tspan>
<tspan x="10" y="1722">  │ │ │ │ ├─┬ recast@0.10.33 </tspan>
<tspan x="10" y="1738">  │ │ │ │ │ ├── ast-types@0.8.12 </tspan>
<tspan x="10" y="1754">  │ │ │ │ │ ├── esprima-fb@15001.1001.0-dev-harmony-fb </tspan>
<tspan x="10" y="1770">  │ │ │ │ │ └── source-map@0.5.6 </tspan>
<tspan x="10" y="1786">  │ │ │ │ └── regenerator-runtime@0.9.6 </tspan>
<tspan x="10" y="1802">  │ │ │ └── thunkify@2.1.2 </tspan>
<tspan x="10" y="1818">  │ │ └─┬ stream-to-buffer@0.1.0 </tspan>
<tspan x="10" y="1834">  │ │   └── stream-to@0.2.2 </tspan>
<tspan x="10" y="1850">  │ └─┬ socks-proxy-agent@2.0.0 </tspan>
<tspan x="10" y="1866">  │   └─┬ socks@1.1.10 </tspan>
<tspan x="10" y="1882">  │     ├── ip@1.1.5 </tspan>
<tspan x="10" y="1898">  │     └── smart-buffer@1.1.15 </tspan>
<tspan x="10" y="1914">  ├─┬ superagent@3.5.2 </tspan>
<tspan x="10" y="1930">  │ ├── component-emitter@1.2.1 </tspan>
<tspan x="10" y="1946">  │ ├── cookiejar@2.1.1 </tspan>
<tspan x="10" y="1962">  │ ├─┬ form-data@2.1.4 </tspan>
<tspan x="10" y="1978">  │ │ ├── asynckit@0.4.0 </tspan>
<tspan x="10" y="1994">  │ │ ├─┬ combined-stream@1.0.5 </tspan>
<tspan x="10" y="2010">  │ │ │ └── delayed-stream@1.0.0 </tspan>
<tspan x="10" y="2026">  │ │ └─┬ mime-types@2.1.15 </tspan>
<tspan x="10" y="2042">  │ │   └── mime-db@1.27.0 </tspan>
<tspan x="10" y="2058">  │ ├── formidable@1.1.1 </tspan>
<tspan x="10" y="2074">  │ ├── methods@1.1.2 </tspan>
<tspan x="10" y="2090">  │ ├── mime@1.3.4 </tspan>
<tspan x="10" y="2106">  │ ├── qs@6.4.0 </tspan>
<tspan x="10" y="2122">  │ └─┬ readable-stream@2.2.9 </tspan>
<tspan x="10" y="2138">  │   ├── buffer-shims@1.0.0 </tspan>
<tspan x="10" y="2154">  │   ├── core-util-is@1.0.2 </tspan>
<tspan x="10" y="2170">  │   ├── isarray@1.0.0 </tspan>
<tspan x="10" y="2186">  │   ├── process-nextick-args@1.0.7 </tspan>
<tspan x="10" y="2202">  │   ├── string_decoder@1.0.0 </tspan>
<tspan x="10" y="2218">  │   └── util-deprecate@1.0.2 </tspan>
<tspan x="10" y="2234">  ├── superagent-oauth@0.2.3 </tspan>
<tspan x="10" y="2250">  └─┬ websocket-stream@4.0.0 </tspan>
<tspan x="10" y="2266">    ├─┬ duplexify@3.5.0 </tspan>
<tspan x="10" y="2282">    │ ├─┬ end-of-stream@1.0.0 </tspan>
<tspan x="10" y="2298">    │ │ └─┬ once@1.3.3 </tspan>
<tspan x="10" y="2314">    │ │   └── wrappy@1.0.2 </tspan>
<tspan x="10" y="2330">    │ └── stream-shift@1.0.0 </tspan>
<tspan x="10" y="2346">    ├── inherits@2.0.3 </tspan>
<tspan x="10" y="2362">    ├── safe-buffer@5.0.1 </tspan>
<tspan x="10" y="2378">    ├─┬ ws@2.3.0 </tspan>
<tspan x="10" y="2394">    │ └── ultron@1.1.0 </tspan>
<tspan x="10" y="2410">    └── xtend@4.0.1</tspan>
</text>
</svg>
